<?xml version="1.0" encoding="utf-8"?>
<!-- Generator: Adobe Illustrator 27.7.0, SVG Export Plug-In . SVG Version: 6.00 Build 0)  -->
<svg version="1.1" id="Capa_1" xmlns="http://www.w3.org/2000/svg" xmlns:xlink="http://www.w3.org/1999/xlink" x="0px" y="0px"
	 viewBox="0 0 942 295" style="enable-background:new 0 0 942 295;" xml:space="preserve">
<style type="text/css">
	.st0{fill:none;}
	.st1{fill:#68B5E3;}
	.st2{opacity:0.5;}
	.st3{fill:#E8E8E8;}
	.st4{fill:#3C335D;}
	.st5{fill:#CDCAE4;}
	.st6{fill:#CBC8DF;}
	.st7{fill:#DEDEDE;}
</style>
<polygon class="st0" points="4656.1,1035.1 4653.9,1035.1 4653.9,1035.1 "/>
<g>
	<g>
		<path class="st1" d="M197.8,194.3c1.3,1.7,2.6,3.4,4,4.9c-0.9-1.2-1.8-2.4-2.7-3.6c-7.5-10.6-12.2-22.9-13.7-35.6
			c-1.5-12.7,0.2-25.7,4.9-37.5c2.4-5.9,5.4-11.5,9.1-16.6c3.8-5.1,8.1-9.8,13-13.8c4.9-4,10.2-7.5,15.9-10.2
			c5.7-2.7,11.8-4.7,18-5.9c12.4-2.5,25.5-1.7,37.7,2c6.1,1.9,11.9,4.6,17.4,7.9c5.5,3.4,10.5,7.4,15,12.1c1,1,1.9,2,2.8,3.1
			c-1.3-1.6-2.6-3.1-4-4.6c8.4,9,14.6,20,18.1,32c-1.2-6.5-3.3-12.8-6.3-18.8c-2.9-6-6.7-11.6-11.1-16.7c-4.4-5.1-9.5-9.6-15.1-13.4
			c-5.6-3.8-11.7-6.9-18.1-9.1c-6.4-2.2-13.1-3.7-19.9-4.2c-6.8-0.6-13.7-0.2-20.4,1c-6.7,1.2-13.3,3.4-19.5,6.2
			c-6.2,2.9-12,6.6-17.3,10.9c-5.2,4.4-9.9,9.5-13.9,15c-3.9,5.6-7.3,11.6-9.7,18c-2.4,6.4-4,13.1-4.7,19.9
			c-0.4,3.4-0.5,6.8-0.5,10.2c0.1,3.4,0.4,6.8,0.9,10.2c0.2,1.7,0.6,3.3,0.9,5c0.4,1.6,0.8,3.3,1.3,4.9c0.9,3.3,2.1,6.4,3.4,9.6
			c2.7,6.2,6.3,12,10.4,17.3c4.2,5.2,9,10,14.4,13.9c5.3,4,11.2,7.2,17.4,9.6C214.8,212.2,205.1,204.1,197.8,194.3z M315.5,96.4
			c-0.4-0.5-0.9-1-1.4-1.4C314.6,95.4,315.1,95.9,315.5,96.4z M299.1,82.9c0.7,0.4,1.4,0.9,2.1,1.4
			C300.5,83.8,299.8,83.3,299.1,82.9c-1.4-0.8-2.8-1.6-4.2-2.4C296.3,81.2,297.7,82,299.1,82.9z M281.7,74.9c0.1,0,0.3,0.1,0.4,0.1
			C281.9,75,281.8,75,281.7,74.9c-0.4-0.1-0.9-0.3-1.3-0.4C280.8,74.7,281.2,74.8,281.7,74.9z M225.9,78.8c-0.7,0.3-1.4,0.7-2.1,1.1
			C224.5,79.5,225.2,79.1,225.9,78.8c0.4-0.2,0.7-0.3,1.1-0.5C226.6,78.5,226.3,78.6,225.9,78.8z M187.8,119.5
			c0.1-0.4,0.3-0.7,0.5-1.1C188.1,118.7,188,119.1,187.8,119.5c-0.2,0.6-0.4,1.1-0.6,1.7C187.4,120.6,187.6,120,187.8,119.5z
			 M182.4,147.4c0,1.2,0,2.4,0.1,3.6C182.4,149.8,182.4,148.6,182.4,147.4z M184.1,164.3c0.2,1.1,0.5,2.1,0.8,3.2
			C184.6,166.5,184.4,165.4,184.1,164.3z M196.6,192.5c-2.1-2.9-4-6-5.6-9.2C192.6,186.5,194.5,189.6,196.6,192.5
			C196.6,192.6,196.6,192.6,196.6,192.5C196.6,192.6,196.6,192.6,196.6,192.5z"/>
		<g class="st2">
			<path class="st1" d="M314.1,94.9c-4.5-4.6-9.6-8.7-15-12.1c-5.5-3.3-11.3-6.1-17.4-7.9c-12.2-3.7-25.3-4.6-37.7-2
				c-6.2,1.2-12.3,3.2-18,5.9C220.2,81.5,214.8,85,210,89c-4.9,4-9.2,8.7-13,13.8c-3.7,5.1-6.8,10.7-9.1,16.6
				c-4.7,11.8-6.4,24.8-4.9,37.5c1.5,12.7,6.2,25,13.7,35.6c1.6,2.3,3.4,4.6,5.3,6.7c-0.9-1.2-1.8-2.4-2.7-3.6
				c-7.5-10.6-12.2-22.9-13.7-35.6c-1.5-12.7,0.2-25.7,4.9-37.5c2.4-5.9,5.4-11.5,9.1-16.6c3.8-5.1,8.1-9.8,13-13.8
				c4.9-4,10.2-7.5,15.9-10.2c5.7-2.7,11.8-4.7,18-5.9c12.4-2.5,25.5-1.7,37.7,2c6.1,1.9,11.9,4.6,17.4,7.9
				c5.5,3.4,10.5,7.4,15,12.1c1,1,1.9,2,2.8,3.1C317.9,98.9,316.1,96.9,314.1,94.9z"/>
		</g>
		<g>
			<g>
				<path class="st3" d="M255.5,162l-0.7,0.5c0,0,0,0,0,0l-4.4,3c0,0,0,0,0,0l-2.1,1.4c0,0,0,0,0,0l0.2,2.6v0l7.7,97.3
					c0.1,0.7,0.6,1.1,1.2,1.1V161.7v-0.3C256.7,161.5,256.1,161.6,255.5,162z"/>
				<path class="st4" d="M264.3,165.5C264.3,165.5,264.3,165.5,264.3,165.5l-4.5-3c0,0,0,0,0,0l-0.7-0.5c-0.5-0.4-1.2-0.5-1.8-0.5
					v0.3V268c0.6,0,1.2-0.4,1.2-1.1l7.9-99.9L264.3,165.5z"/>
			</g>
			<path class="st5" d="M266.4,128l-7.9-99.9c-0.1-0.7-0.6-1.1-1.2-1.1v106.3c0.9,0,1.7-0.3,2.5-0.8c0,0,0,0,0,0l4.4-3c0,0,0,0,0,0
				L266.4,128z"/>
			<path class="st4" d="M256.1,28.1l-7.9,99.9l5.1,3.5l-3-2.1c0,0,0,0,0,0l4.4,3c0,0,0,0,0,0c0.8,0.5,1.6,0.8,2.5,0.8V27
				C256.7,27,256.1,27.4,256.1,28.1z"/>
		</g>
		<g>
			<g>
				<path class="st3" d="M243.1,147.5H136.8c0,0.6,0.4,1.2,1.1,1.2l97.3,7.7h0l2.6,0.2c0,0,0,0,0,0l1.4-2.1c0,0,0,0,0,0c0,0,0,0,0,0
					l3-4.4c0,0,0,0,0,0l0.5-0.7c0.4-0.5,0.5-1.2,0.5-1.8H243.1z"/>
				<path class="st4" d="M242.8,145.7l-0.5-0.7c0,0,0,0,0,0l-3-4.4c0,0,0,0,0,0l-1.4-2.1l-99.9,7.9c-0.7,0.1-1.1,0.6-1.1,1.2h106.3
					h0.3C243.3,146.9,243.2,146.3,242.8,145.7z"/>
			</g>
			<path class="st3" d="M376.7,146.3l-99.9-7.9c0,0,0,0,0,0l-1.4,2.1c0,0,0,0,0,0l-3,4.4c0,0,0,0,0,0c-0.5,0.8-0.8,1.6-0.8,2.5
				h106.3C377.8,146.9,377.4,146.3,376.7,146.3z"/>
			<path class="st4" d="M271.5,147.5c0,0.9,0.3,1.7,0.8,2.5c0,0,0,0,0,0l3,4.4c0,0,0,0,0,0l1.4,2.1c0,0,0,0,0,0l99.9-7.9
				c0.7-0.1,1.1-0.6,1.1-1.2H271.5z"/>
		</g>
		<g>
			<g>
				<circle class="st4" cx="274.3" cy="130.4" r="1.5"/>
				<circle class="st4" cx="277.4" cy="127.2" r="1.5"/>
				<circle class="st4" cx="280.4" cy="124" r="1.5"/>
			</g>
		</g>
		<g>
			<circle class="st6" cx="234.2" cy="170.8" r="1.5"/>
			<circle class="st6" cx="237.2" cy="167.6" r="1.5"/>
			<circle class="st6" cx="240.3" cy="164.4" r="1.5"/>
		</g>
		<g>
			<circle class="st7" cx="240.3" cy="130.4" r="1.5"/>
			<circle class="st7" cx="237.2" cy="127.2" r="1.5"/>
			<circle class="st7" cx="234.2" cy="124" r="1.5"/>
		</g>
	</g>
	<g>
		<path class="st4" d="M324.5,214.6c-4.5,4.5-10.4,6.5-16.7,6.5c-16.4,0-23.3-11.3-23.3-22.7c-0.1-11.5,7.4-23.2,23.3-23.2
			c6,0,11.6,2.3,16.2,6.7l-5.5,5.3c-2.9-2.8-6.8-4.2-10.6-4.2c-10.6,0-15.2,7.9-15.2,15.3c0.1,7.3,4.3,14.9,15.2,14.9
			c3.8,0,8.2-1.6,11.1-4.5L324.5,214.6z"/>
		<path class="st4" d="M351.8,189.1h7.4v31h-7.2l-0.4-4.5c-1.8,3.6-6.6,5.4-10.1,5.5c-9.2,0.1-16-5.6-16-16.5
			c0-10.7,7.1-16.3,16.2-16.2c4.2,0,8.1,2,9.9,5L351.8,189.1z M333.2,204.6c0,5.9,4.1,9.4,9.2,9.4c12.1,0,12.1-18.8,0-18.8
			C337.3,195.2,333.2,198.7,333.2,204.6z"/>
		<path class="st4" d="M375.2,180.4v8.8h8.6v6.6h-8.6v13.4c0,3,1.6,4.4,4,4.4c1.2,0,2.6-0.4,3.7-0.9l2.1,6.5c-2.2,0.9-4,1.3-6.4,1.3
			c-6.7,0.3-11.1-3.6-11.1-11.3v-13.4h-5.8v-6.6h5.8v-8L375.2,180.4z"/>
		<path class="st4" d="M404,188.5c9.9,0,16.2,7.3,16.2,16.2c0,8.9-6.1,16.2-16.2,16.2c-10.1,0-16.1-7.2-16.1-16.2
			C388,195.8,394.2,188.5,404,188.5z M404.1,195.5c-5.5,0-8.4,4.5-8.4,9.2c0,4.7,2.8,9.1,8.4,9.1s8.4-4.4,8.4-9.1
			C412.5,200,409.3,195.5,404.1,195.5z M414,175.9h-9.1l-4.7,8.6v0.4h6.8l6.9-8.6V175.9z"/>
		<path class="st4" d="M433.2,176.2v44h-7.6v-44H433.2z"/>
		<path class="st4" d="M448.3,180.4c0,6-9.1,6-9.1,0C439.2,174.4,448.3,174.4,448.3,180.4z M439.9,189v31.1h7.7V189H439.9z"/>
		<path class="st4" d="M481.1,216.2c-3.6,3.5-7.4,4.9-12,4.9c-9,0-16.5-5.4-16.5-16.4c0-11,7.5-16.4,16.5-16.4
			c4.4,0,7.8,1.3,11.2,4.6l-4.8,5.1c-1.8-1.6-4.1-2.5-6.2-2.5c-5.2,0-8.9,3.8-8.9,9.2c0,5.9,4,9.1,8.8,9.1c2.5,0,4.9-0.7,6.8-2.6
			L481.1,216.2z"/>
		<path class="st4" d="M509.1,189.1h7.4v31h-7.2l-0.4-4.5c-1.8,3.6-6.6,5.4-10.1,5.5c-9.2,0.1-16-5.6-16-16.5
			c0-10.7,7.1-16.3,16.2-16.2c4.2,0,8.1,2,9.9,5L509.1,189.1z M490.5,204.6c0,5.9,4.1,9.4,9.2,9.4c12.1,0,12.1-18.8,0-18.8
			C494.6,195.2,490.5,198.7,490.5,204.6z"/>
		<path class="st4" d="M567.9,176.2v44h-7.2l-0.5-4.3c-2.4,3.7-6.2,5-10,5c-9.1,0-16-6-16-16.2c0-10.7,6.7-16.2,15.8-16.2
			c3.3,0,8.4,1.8,10.2,5v-17.2H567.9z M541.9,204.6c0,5.4,3.9,9.1,8.8,9.1c4.8,0,9-3.5,9-9.1c0-5.4-4.2-9.1-9-9.1
			C545.8,195.6,541.9,199,541.9,204.6z"/>
		<path class="st4" d="M581.8,207.4c0.5,3.8,3.8,6.6,9.2,6.6c2.8,0,6.5-1.1,8.3-2.9l4.9,4.8c-3.3,3.4-8.6,5-13.3,5
			c-10.7,0-17-6.6-17-16.5c0-9.4,6.4-16.2,16.5-16.2c10.4,0,16.9,6.4,15.7,19.2H581.8z M598.6,201c-0.5-4-3.6-6-8.1-6
			c-4.2,0-7.5,2-8.7,6H598.6z"/>
		<path class="st4" d="M619.5,176.2v44h-7.6v-44H619.5z"/>
		<path class="st4" d="M668.5,176.1h8.3v44.1h-5.2v0.1l-23.1-29.8v29.7h-8.3v-44h6.7l21.6,27.3V176.1z"/>
		<path class="st4" d="M714.6,204.7c0,8.9-6.1,16.2-16.2,16.2c-10.1,0-16.1-7.2-16.1-16.2c0-8.9,6.2-16.2,16-16.2
			C708.3,188.5,714.6,195.8,714.6,204.7z M690,204.7c0,4.7,2.8,9.1,8.4,9.1s8.4-4.4,8.4-9.1c0-4.7-3.3-9.2-8.4-9.2
			C692.9,195.5,690,200,690,204.7z"/>
		<path class="st4" d="M727,189.1l0.6,3.6c2.4-3.8,5.6-4.4,8.7-4.4c3.2,0,6.3,1.3,8,3l-3.5,6.7c-1.6-1.3-3-2-5.5-2
			c-4,0-7.7,2.1-7.7,7.9v16.4h-7.7v-31H727z"/>
		<path class="st4" d="M760,180.4v8.8h8.6v6.6h-8.6v13.4c0,3,1.6,4.4,4,4.4c1.2,0,2.6-0.4,3.7-0.9l2.1,6.5c-2.2,0.9-4,1.3-6.4,1.3
			c-6.7,0.3-11.1-3.6-11.1-11.3v-13.4h-5.8v-6.6h5.8v-8L760,180.4z"/>
		<path class="st4" d="M780.8,207.4c0.5,3.8,3.8,6.6,9.2,6.6c2.8,0,6.5-1.1,8.3-2.9l4.9,4.8c-3.3,3.4-8.6,5-13.3,5
			c-10.7,0-17-6.6-17-16.5c0-9.4,6.4-16.2,16.5-16.2c10.4,0,16.9,6.4,15.7,19.2H780.8z M797.7,201c-0.5-4-3.6-6-8.1-6
			c-4.2,0-7.5,2-8.7,6H797.7z"/>
	</g>
	<g>
		<path class="st4" d="M319.1,243.4c0-1.7,0.9-2.6,2.8-2.6h13.7c1.5,0,2.3,0.7,2.3,2.1c0,0.8-0.2,1.5-0.6,2.1h-13.6v7h10.7
			c1.5,0,2.3,0.7,2.3,2.1c0,0.8-0.2,1.5-0.6,2.1h-12.4v11h-4.7V243.4z"/>
		<path class="st4" d="M359.9,259.4c0,2.6-0.8,4.6-2.5,6.1c-1.7,1.5-4,2.3-6.9,2.3c-2.9,0-5.2-0.8-6.9-2.3c-1.7-1.5-2.5-3.5-2.5-6.1
			v-9.5c0-0.7,0.2-1.2,0.7-1.5c0.4-0.3,1-0.5,1.7-0.5c0.4,0,0.7,0,1.1,0.1c0.4,0.1,0.7,0.2,0.9,0.3v10.1c0,3.6,1.7,5.4,5,5.4
			c3.3,0,5-1.8,5-5.4v-8.5c0-0.7,0.2-1.2,0.7-1.5c0.4-0.3,1-0.5,1.7-0.5c0.4,0,0.7,0,1.1,0.1c0.4,0.1,0.7,0.2,0.9,0.3V259.4z"/>
		<path class="st4" d="M365.2,255.5c0-1.6,0.4-3.1,1.2-4.3c0.8-1.2,1.9-2.2,3.3-2.9c1.4-0.7,3.1-1,4.9-1c1.9,0,3.5,0.3,4.9,1
			c1.4,0.7,2.5,1.6,3.3,2.9c0.8,1.2,1.2,2.7,1.2,4.3v11.7h-4.4v-10.5c0-1.7-0.4-3.1-1.3-4c-0.8-0.9-2.1-1.4-3.7-1.4
			c-3.3,0-5,1.8-5,5.4v10.5h-4.4V255.5z"/>
		<path class="st4" d="M409.4,256.6c0,2.3-0.4,4.3-1.3,6c-0.8,1.7-2,2.9-3.5,3.8c-1.5,0.9-3.3,1.3-5.4,1.3c-2.1,0-4-0.4-5.5-1.3
			c-1.6-0.9-2.8-2.1-3.7-3.6c-0.9-1.5-1.3-3.3-1.3-5.3c0-2,0.4-3.7,1.3-5.3c0.9-1.5,2.1-2.7,3.5-3.6c1.5-0.9,3.2-1.3,5-1.3
			c1.4,0,2.7,0.3,3.8,0.8c1.1,0.5,2,1.3,2.8,2.2v-9.4c0-0.7,0.2-1.2,0.7-1.5c0.4-0.3,1-0.5,1.7-0.5c0.4,0,0.7,0,1.1,0.1
			s0.7,0.2,0.9,0.3V256.6z M394.8,252.9c-1.1,1.2-1.7,2.7-1.7,4.5c0,1.9,0.6,3.4,1.7,4.5c1.1,1.2,2.5,1.7,4.3,1.7
			c1.7,0,3.2-0.6,4.3-1.7c1.1-1.2,1.7-2.7,1.7-4.5c0-1.9-0.6-3.4-1.7-4.5c-1.1-1.2-2.5-1.7-4.3-1.7
			C397.4,251.2,395.9,251.8,394.8,252.9z"/>
		<path class="st4" d="M431.7,267.1c-1.3,0.2-2.8,0.3-4.3,0.4c-1.6,0.1-3,0.2-4.2,0.2c-3.2,0-5.6-0.5-7.3-1.5
			c-1.7-1-2.5-2.6-2.5-4.9c0-2,0.7-3.5,2.2-4.6c1.4-1.1,3.8-1.6,7.1-1.6c0.7,0,1.6,0,2.5,0.1c0.9,0.1,1.7,0.1,2.2,0.2
			c0-1.6-0.5-2.7-1.4-3.4c-1-0.7-2.4-1.1-4.3-1.1c-1.2,0-2.3,0.1-3.3,0.4c-1,0.3-1.7,0.6-2.1,1c-0.3-0.2-0.5-0.5-0.7-0.9
			c-0.2-0.4-0.3-0.8-0.3-1.2c0-0.9,0.5-1.6,1.6-2.1c1.1-0.5,2.7-0.8,4.8-0.8c3.4,0,5.9,0.7,7.6,2.1c1.7,1.4,2.6,3.4,2.6,6.1V267.1z
			 M419.1,263.8c0.9,0.5,2.2,0.7,4.1,0.7c0.8,0,1.6,0,2.3-0.1c0.8-0.1,1.4-0.1,1.8-0.3v-5.6c-0.6-0.1-1.3-0.2-2.2-0.3
			c-0.9-0.1-1.7-0.1-2.4-0.1c-1.9,0-3.2,0.3-3.9,0.8c-0.7,0.6-1.1,1.4-1.1,2.4C417.7,262.6,418.2,263.3,419.1,263.8z"/>
		<path class="st4" d="M437.6,252.2c0.9-1.5,2.1-2.7,3.7-3.6c1.6-0.9,3.5-1.3,5.8-1.3c1.3,0,2.4,0.1,3.5,0.4c1,0.3,1.8,0.7,2.4,1.2
			c0.6,0.5,0.8,1,0.8,1.6c0,0.4-0.1,0.8-0.4,1.3c-0.3,0.4-0.6,0.8-1.1,1.2c-0.6-0.6-1.4-1-2.3-1.4c-0.9-0.3-1.9-0.5-2.9-0.5
			c-1.9,0-3.4,0.6-4.5,1.7c-1.1,1.1-1.7,2.7-1.7,4.6c0,2,0.6,3.5,1.7,4.6c1.1,1.1,2.7,1.7,4.6,1.7c1.7,0,3.3-0.4,4.8-1.3l1.8,3.3
			c-2.1,1.3-4.5,1.9-7.1,1.9c-2.1,0-3.9-0.4-5.5-1.3c-1.6-0.8-2.8-2-3.7-3.5c-0.9-1.5-1.3-3.3-1.3-5.4
			C436.3,255.6,436.8,253.8,437.6,252.2z"/>
		<path class="st4" d="M457.8,243.8c-0.5-0.5-0.8-1.2-0.8-1.9s0.3-1.4,0.8-1.9c0.5-0.5,1.1-0.8,1.9-0.8s1.4,0.3,1.9,0.8
			c0.5,0.5,0.8,1.2,0.8,1.9s-0.3,1.4-0.8,1.9c-0.5,0.5-1.1,0.8-1.9,0.8S458.3,244.3,457.8,243.8z M461.9,267.2h-4.4v-17.3
			c0-0.7,0.2-1.2,0.7-1.5c0.4-0.3,1-0.5,1.7-0.5c0.4,0,0.7,0,1.1,0.1c0.4,0.1,0.7,0.2,0.9,0.3V267.2z"/>
		<path class="st4" d="M468.1,262.7c-0.9-1.5-1.4-3.3-1.4-5.2s0.5-3.7,1.4-5.2c0.9-1.5,2.2-2.8,3.8-3.7c1.6-0.9,3.4-1.3,5.4-1.3
			s3.8,0.4,5.4,1.3c1.6,0.9,2.9,2.1,3.8,3.7c0.9,1.5,1.4,3.3,1.4,5.2s-0.5,3.7-1.4,5.2c-0.9,1.5-2.2,2.8-3.8,3.7
			c-1.6,0.9-3.4,1.3-5.4,1.3s-3.8-0.4-5.4-1.3C470.3,265.5,469.1,264.3,468.1,262.7z M482.5,260.8c0.5-1,0.8-2.1,0.8-3.3
			c0-1.2-0.3-2.3-0.8-3.3c-0.5-1-1.2-1.7-2.1-2.3c-0.9-0.5-1.9-0.8-3.1-0.8s-2.2,0.3-3.1,0.8c-0.9,0.5-1.6,1.3-2.1,2.3
			c-0.5,1-0.8,2.1-0.8,3.3c0,1.2,0.3,2.3,0.8,3.3c0.5,1,1.2,1.7,2.1,2.3c0.9,0.5,1.9,0.8,3.1,0.8s2.2-0.3,3.1-0.8
			C481.3,262.5,482,261.8,482.5,260.8z M477.6,240.3c0.8-0.6,1.5-0.8,2.1-0.8c1.3,0,2,0.8,2.3,2.3l-7.1,3.6l-1.4-2L477.6,240.3z"/>
		<path class="st4" d="M492.5,255.5c0-1.6,0.4-3.1,1.2-4.3c0.8-1.2,1.9-2.2,3.3-2.9c1.4-0.7,3.1-1,4.9-1c1.9,0,3.5,0.3,4.9,1
			c1.4,0.7,2.5,1.6,3.3,2.9c0.8,1.2,1.2,2.7,1.2,4.3v11.7h-4.4v-10.5c0-1.7-0.4-3.1-1.3-4c-0.8-0.9-2.1-1.4-3.7-1.4
			c-3.3,0-5,1.8-5,5.4v10.5h-4.4V255.5z"/>
		<path class="st4" d="M551.5,255.3c0,4.1-1,7.2-3.1,9.4c-2,2.1-5,3.2-9,3.2c-3.9,0-6.9-1.1-9-3.2c-2-2.1-3.1-5.2-3.1-9.4v-12.4
			c0-0.7,0.2-1.2,0.7-1.6c0.4-0.4,1-0.6,1.8-0.6c0.4,0,0.7,0,1.1,0.1c0.4,0.1,0.7,0.2,1.1,0.3v13.7c0,3.1,0.6,5.3,1.8,6.7
			c1.2,1.4,3.1,2.1,5.7,2.1s4.5-0.7,5.7-2.1c1.2-1.4,1.8-3.6,1.8-6.7v-12c0-0.7,0.2-1.2,0.7-1.6c0.4-0.4,1-0.6,1.8-0.6
			c0.4,0,0.7,0,1.1,0.1c0.4,0.1,0.7,0.2,1.1,0.3V255.3z"/>
		<path class="st4" d="M557.1,255.5c0-1.6,0.4-3.1,1.2-4.3c0.8-1.2,1.9-2.2,3.3-2.9c1.4-0.7,3.1-1,4.9-1c1.9,0,3.5,0.3,4.9,1
			c1.4,0.7,2.5,1.6,3.3,2.9c0.8,1.2,1.2,2.7,1.2,4.3v11.7h-4.4v-10.5c0-1.7-0.4-3.1-1.3-4c-0.8-0.9-2.1-1.4-3.7-1.4
			c-3.3,0-5,1.8-5,5.4v10.5h-4.4V255.5z"/>
		<path class="st4" d="M581.8,243.8c-0.5-0.5-0.8-1.2-0.8-1.9s0.3-1.4,0.8-1.9c0.5-0.5,1.1-0.8,1.9-0.8s1.4,0.3,1.9,0.8
			c0.5,0.5,0.8,1.2,0.8,1.9s-0.3,1.4-0.8,1.9c-0.5,0.5-1.1,0.8-1.9,0.8S582.3,244.3,581.8,243.8z M585.9,267.2h-4.4v-17.3
			c0-0.7,0.2-1.2,0.7-1.5c0.4-0.3,1-0.5,1.7-0.5c0.4,0,0.7,0,1.1,0.1c0.4,0.1,0.7,0.2,0.9,0.3V267.2z"/>
		<path class="st4" d="M596.4,254.8c1.1,2.5,2.3,5.1,3.6,7.7c0.4-0.8,0.9-1.8,1.5-3.2c0.6-1.4,1.3-2.9,2-4.5c0.7-1.6,1.4-3.3,2-4.9
			c0.3-0.8,0.7-1.3,1.1-1.6c0.4-0.3,0.9-0.5,1.6-0.5c0.4,0,0.9,0.1,1.4,0.2c0.5,0.2,0.9,0.4,1.1,0.6c-0.1,0.5-0.4,1.3-0.9,2.3
			c-0.4,1.1-1,2.3-1.6,3.7c-0.6,1.4-1.3,2.8-2,4.4c-0.7,1.5-1.4,3-2.2,4.4c-0.7,1.4-1.4,2.7-2,3.8h-4.3c-1.5-2.7-2.8-5.4-4.1-7.9
			c-1.2-2.5-2.2-4.6-2.9-6.2c-0.3-0.8-0.6-1.5-0.8-2.1c-0.2-0.6-0.3-1-0.3-1.2c0-0.6,0.2-1.1,0.6-1.4c0.4-0.3,0.9-0.5,1.6-0.5
			c0.4,0,0.7,0,1.1,0.1c0.4,0.1,0.7,0.2,0.8,0.3C594.4,250.1,595.3,252.3,596.4,254.8z"/>
		<path class="st4" d="M623.3,267.7c-2,0-3.8-0.4-5.4-1.3c-1.6-0.8-2.8-2-3.6-3.5c-0.9-1.5-1.3-3.3-1.3-5.3c0-2,0.4-3.8,1.3-5.4
			c0.9-1.6,2.1-2.8,3.7-3.7c1.6-0.9,3.4-1.3,5.4-1.3c2.5,0,4.5,0.6,6,1.7c1.5,1.1,2.3,2.7,2.3,4.7c0,2-0.9,3.5-2.7,4.5
			c-1.8,1-4.6,1.5-8.5,1.5c-0.4,0-0.8,0-1.3,0c-0.5,0-1,0-1.6-0.1c0.2,1.3,0.9,2.4,2.1,3.2c1.2,0.8,2.6,1.2,4.4,1.2
			c1.9,0,3.7-0.4,5.2-1.3l1.6,3.1c-0.6,0.4-1.3,0.7-2.1,1c-0.8,0.3-1.8,0.5-2.7,0.7C625.2,267.6,624.3,267.7,623.3,267.7z
			 M623.4,250.7c-1.7,0-3.1,0.5-4.2,1.6c-1.1,1.1-1.7,2.5-1.7,4.3c0.4,0,0.9,0,1.4,0c0.5,0,1.1,0,1.9,0c4.4,0,6.7-1,6.7-3
			c0-0.9-0.4-1.6-1.1-2.1C625.6,251,624.6,250.7,623.4,250.7z"/>
		<path class="st4" d="M635.9,254.8c0-2.3,0.7-4.2,2.2-5.5c1.4-1.3,3.5-2,6-2c1.7,0,3.1,0.3,4,0.8c0.9,0.5,1.4,1.2,1.4,2
			c0,0.4-0.1,0.8-0.3,1.2c-0.2,0.4-0.4,0.7-0.6,0.8c-1.1-0.6-2.4-0.8-3.8-0.8c-3,0-4.5,1.6-4.5,4.8v11.2h-4.4V254.8z"/>
		<path class="st4" d="M669.8,261.4c0,2-0.8,3.6-2.4,4.7c-1.6,1.1-3.8,1.7-6.4,1.7c-1.2,0-2.5-0.1-3.8-0.3c-1.3-0.2-2.5-0.5-3.5-0.9
			c-1.1-0.4-1.9-0.8-2.4-1.2l1.7-3c0.8,0.5,2,1,3.4,1.3c1.4,0.4,2.9,0.6,4.5,0.6c3,0,4.5-0.8,4.5-2.3c0-1.3-1.2-2.1-3.7-2.4
			l-3.9-0.5c-2-0.3-3.5-0.8-4.5-1.8c-1.1-0.9-1.6-2.2-1.6-3.8c0-2,0.8-3.5,2.3-4.6c1.6-1,3.8-1.6,6.8-1.6c1.6,0,3,0.1,4.2,0.4
			c1.2,0.3,2.2,0.7,2.8,1.1c0.7,0.5,1,1,1,1.6c0,0.4-0.1,0.8-0.4,1.2c-0.3,0.4-0.6,0.7-0.9,0.9c-0.3-0.3-0.9-0.6-1.7-0.9
			c-0.8-0.3-1.6-0.5-2.6-0.7c-1-0.2-2-0.3-2.9-0.3c-1.4,0-2.4,0.2-3.2,0.6c-0.8,0.4-1.1,1-1.1,1.8c0,0.6,0.3,1.1,0.8,1.4
			c0.5,0.4,1.4,0.6,2.5,0.8l3.9,0.5C667.6,256.3,669.8,258.2,669.8,261.4z"/>
		<path class="st4" d="M674.9,243.8c-0.5-0.5-0.8-1.2-0.8-1.9s0.3-1.4,0.8-1.9c0.5-0.5,1.1-0.8,1.9-0.8s1.4,0.3,1.9,0.8
			c0.5,0.5,0.8,1.2,0.8,1.9s-0.3,1.4-0.8,1.9c-0.5,0.5-1.1,0.8-1.9,0.8S675.4,244.3,674.9,243.8z M679,267.2h-4.4v-17.3
			c0-0.7,0.2-1.2,0.7-1.5c0.4-0.3,1-0.5,1.7-0.5c0.4,0,0.7,0,1.1,0.1c0.4,0.1,0.7,0.2,0.9,0.3V267.2z"/>
		<path class="st4" d="M684.6,244.4c0-0.7,0.2-1.2,0.7-1.5c0.4-0.3,1-0.5,1.7-0.5c0.4,0,0.7,0,1.1,0.1c0.4,0.1,0.7,0.2,0.9,0.3v5
			h5.6c1.5,0,2.3,0.7,2.3,2c0,0.7-0.2,1.4-0.5,2h-7.4v8.5c0,1.1,0.3,1.9,0.8,2.5c0.6,0.6,1.4,0.9,2.5,0.9c0.6,0,1.3-0.1,1.9-0.3
			c0.7-0.2,1.2-0.4,1.7-0.7l1.8,2.9c-0.7,0.6-1.6,1-2.7,1.4c-1.1,0.4-2.3,0.6-3.5,0.6c-2.1,0-3.7-0.6-5-1.7
			c-1.2-1.1-1.9-2.7-1.9-4.6V244.4z"/>
		<path class="st4" d="M718.2,267.1c-1.3,0.2-2.8,0.3-4.3,0.4c-1.6,0.1-3,0.2-4.2,0.2c-3.2,0-5.6-0.5-7.3-1.5
			c-1.7-1-2.5-2.6-2.5-4.9c0-2,0.7-3.5,2.2-4.6c1.4-1.1,3.8-1.6,7.1-1.6c0.7,0,1.6,0,2.5,0.1c0.9,0.1,1.7,0.1,2.2,0.2
			c0-1.6-0.5-2.7-1.4-3.4c-1-0.7-2.4-1.1-4.3-1.1c-1.2,0-2.3,0.1-3.3,0.4c-1,0.3-1.7,0.6-2.1,1c-0.3-0.2-0.5-0.5-0.7-0.9
			c-0.2-0.4-0.3-0.8-0.3-1.2c0-0.9,0.5-1.6,1.6-2.1c1.1-0.5,2.7-0.8,4.8-0.8c3.4,0,5.9,0.7,7.6,2.1c1.7,1.4,2.6,3.4,2.6,6.1V267.1z
			 M705.5,263.8c0.9,0.5,2.2,0.7,4.1,0.7c0.8,0,1.6,0,2.3-0.1c0.8-0.1,1.4-0.1,1.8-0.3v-5.6c-0.6-0.1-1.3-0.2-2.2-0.3
			c-0.9-0.1-1.7-0.1-2.4-0.1c-1.9,0-3.2,0.3-3.9,0.8c-0.7,0.6-1.1,1.4-1.1,2.4C704.2,262.6,704.7,263.3,705.5,263.8z"/>
		<path class="st4" d="M723.6,254.8c0-2.3,0.7-4.2,2.2-5.5c1.4-1.3,3.5-2,6-2c1.7,0,3.1,0.3,4,0.8c0.9,0.5,1.4,1.2,1.4,2
			c0,0.4-0.1,0.8-0.3,1.2c-0.2,0.4-0.4,0.7-0.6,0.8c-1.1-0.6-2.4-0.8-3.8-0.8c-3,0-4.5,1.6-4.5,4.8v11.2h-4.4V254.8z"/>
		<path class="st4" d="M740.9,243.8c-0.5-0.5-0.8-1.2-0.8-1.9s0.3-1.4,0.8-1.9c0.5-0.5,1.1-0.8,1.9-0.8s1.4,0.3,1.9,0.8
			c0.5,0.5,0.8,1.2,0.8,1.9s-0.3,1.4-0.8,1.9c-0.5,0.5-1.1,0.8-1.9,0.8S741.4,244.3,740.9,243.8z M745,267.2h-4.4v-17.3
			c0-0.7,0.2-1.2,0.7-1.5c0.4-0.3,1-0.5,1.7-0.5c0.4,0,0.7,0,1.1,0.1c0.4,0.1,0.7,0.2,0.9,0.3V267.2z"/>
		<path class="st4" d="M768,267.1c-1.3,0.2-2.8,0.3-4.3,0.4c-1.6,0.1-3,0.2-4.2,0.2c-3.2,0-5.6-0.5-7.3-1.5c-1.7-1-2.5-2.6-2.5-4.9
			c0-2,0.7-3.5,2.2-4.6c1.4-1.1,3.8-1.6,7.1-1.6c0.7,0,1.6,0,2.5,0.1c0.9,0.1,1.7,0.1,2.2,0.2c0-1.6-0.5-2.7-1.4-3.4
			c-1-0.7-2.4-1.1-4.3-1.1c-1.2,0-2.3,0.1-3.3,0.4c-1,0.3-1.7,0.6-2.1,1c-0.3-0.2-0.5-0.5-0.7-0.9c-0.2-0.4-0.3-0.8-0.3-1.2
			c0-0.9,0.5-1.6,1.6-2.1c1.1-0.5,2.7-0.8,4.8-0.8c3.4,0,5.9,0.7,7.6,2.1c1.7,1.4,2.6,3.4,2.6,6.1V267.1z M755.3,263.8
			c0.9,0.5,2.2,0.7,4.1,0.7c0.8,0,1.6,0,2.3-0.1c0.8-0.1,1.4-0.1,1.8-0.3v-5.6c-0.6-0.1-1.3-0.2-2.2-0.3c-0.9-0.1-1.7-0.1-2.4-0.1
			c-1.9,0-3.2,0.3-3.9,0.8c-0.7,0.6-1.1,1.4-1.1,2.4C754,262.6,754.4,263.3,755.3,263.8z"/>
	</g>
</g>
</svg>
